<svg width="123" height="16" viewBox="0 0 123 16" fill="none" xmlns="http://www.w3.org/2000/svg">
<path d="M7.64773 15.1648C6.47349 15.1648 5.43182 15.0038 4.52273 14.6818C3.61742 14.3636 2.85417 13.8939 2.23295 13.2727C1.61174 12.6553 1.14015 11.8977 0.818182 11C0.496212 10.1023 0.335227 9.07765 0.335227 7.92614C0.335227 6.80492 0.498106 5.79735 0.823864 4.90341C1.14962 4.00947 1.62311 3.24811 2.24432 2.61932C2.86932 1.98674 3.62879 1.50379 4.52273 1.17045C5.41667 0.837121 6.43182 0.670454 7.56818 0.670454C8.6553 0.670454 9.61364 0.840909 10.4432 1.18182C11.2727 1.52273 11.9697 1.99053 12.5341 2.58523C13.1023 3.17992 13.5303 3.86174 13.8182 4.63068C14.1061 5.39962 14.25 6.21212 14.25 7.06818C14.25 7.66667 14.2121 8.25189 14.1364 8.82386C14.0606 9.39205 13.9205 9.9072 13.7159 10.3693C13.5152 10.8277 13.2235 11.1951 12.8409 11.4716C12.4621 11.7443 11.9697 11.8864 11.3636 11.8977C11.0417 11.9091 10.7292 11.8712 10.4261 11.7841C10.1231 11.697 9.86553 11.5568 9.65341 11.3636C9.44129 11.1667 9.3125 10.9167 9.26705 10.6136H9.19886C9.10795 10.8371 8.95644 11.0455 8.74432 11.2386C8.5322 11.428 8.26136 11.5795 7.93182 11.6932C7.60606 11.803 7.22727 11.8485 6.79545 11.8295C6.31818 11.8106 5.88826 11.7027 5.50568 11.5057C5.12311 11.3087 4.79545 11.036 4.52273 10.6875C4.25379 10.339 4.04735 9.92614 3.90341 9.44886C3.75947 8.97159 3.6875 8.44129 3.6875 7.85795C3.6875 7.29735 3.76894 6.79545 3.93182 6.35227C4.0947 5.9053 4.31629 5.52083 4.59659 5.19886C4.88068 4.87311 5.20644 4.61553 5.57386 4.42614C5.94129 4.23674 6.32955 4.11742 6.73864 4.06818C7.13636 4.02273 7.50189 4.03409 7.83523 4.10227C8.16856 4.17045 8.44508 4.27462 8.66477 4.41477C8.88826 4.55492 9.02841 4.70833 9.08523 4.875H9.15909V4.23864H10.5568V9.51136C10.5568 9.81061 10.6345 10.0644 10.7898 10.2727C10.9489 10.4811 11.1742 10.5852 11.4659 10.5852C11.8106 10.5852 12.0795 10.4583 12.2727 10.2045C12.4697 9.95076 12.608 9.56061 12.6875 9.03409C12.7708 8.50758 12.8125 7.83333 12.8125 7.01136C12.8125 6.43561 12.7348 5.89394 12.5795 5.38636C12.428 4.875 12.2027 4.41288 11.9034 4C11.608 3.58333 11.2443 3.22538 10.8125 2.92614C10.3807 2.62689 9.88826 2.39583 9.33523 2.23295C8.78599 2.07008 8.17803 1.98864 7.51136 1.98864C6.60606 1.98864 5.80114 2.12879 5.09659 2.40909C4.39205 2.68561 3.79735 3.08523 3.3125 3.60795C2.83144 4.13068 2.46591 4.75758 2.21591 5.48864C1.9697 6.21591 1.84659 7.0322 1.84659 7.9375C1.84659 8.88068 1.97348 9.7178 2.22727 10.4489C2.48106 11.1761 2.85606 11.7898 3.35227 12.2898C3.84848 12.7898 4.46212 13.1686 5.19318 13.4261C5.92424 13.6875 6.76705 13.8182 7.72159 13.8182C8.14583 13.8182 8.5625 13.7803 8.97159 13.7045C9.38068 13.6326 9.74432 13.5492 10.0625 13.4545C10.3845 13.3636 10.625 13.2898 10.7841 13.233L11.1818 14.4773C10.947 14.5871 10.6345 14.6951 10.2443 14.8011C9.85795 14.9072 9.4375 14.9943 8.98295 15.0625C8.5322 15.1307 8.08712 15.1648 7.64773 15.1648ZM7.125 10.4375C7.61742 10.4375 8.01326 10.339 8.3125 10.142C8.61553 9.94508 8.83333 9.65152 8.96591 9.26136C9.10227 8.86742 9.17045 8.375 9.17045 7.78409C9.16667 7.20833 9.0928 6.75 8.94886 6.40909C8.80871 6.06439 8.58902 5.81818 8.28977 5.67045C7.99432 5.51894 7.61364 5.44318 7.14773 5.44318C6.7197 5.44318 6.35417 5.54735 6.05114 5.75568C5.75189 5.96401 5.52273 6.24621 5.36364 6.60227C5.20833 6.95833 5.12879 7.35417 5.125 7.78977C5.12879 8.24811 5.19318 8.67992 5.31818 9.08523C5.44697 9.48674 5.6553 9.8125 5.94318 10.0625C6.23485 10.3125 6.62879 10.4375 7.125 10.4375ZM16.2628 12V0.363636H17.9616V4.6875H18.0639C18.1624 4.50568 18.3045 4.29545 18.4901 4.05682C18.6757 3.81818 18.9332 3.60985 19.2628 3.43182C19.5923 3.25 20.0279 3.15909 20.5696 3.15909C21.2741 3.15909 21.9029 3.33712 22.456 3.69318C23.009 4.04924 23.4427 4.5625 23.7571 5.23295C24.0753 5.90341 24.2344 6.71023 24.2344 7.65341C24.2344 8.59659 24.0772 9.4053 23.7628 10.0795C23.4484 10.75 23.0166 11.267 22.4673 11.6307C21.9181 11.9905 21.2912 12.1705 20.5866 12.1705C20.0563 12.1705 19.6226 12.0814 19.2855 11.9034C18.9522 11.7254 18.6908 11.517 18.5014 11.2784C18.312 11.0398 18.1662 10.8277 18.0639 10.642H17.9219V12H16.2628ZM17.9276 7.63636C17.9276 8.25 18.0166 8.78788 18.1946 9.25C18.3726 9.71212 18.6302 10.0739 18.9673 10.3352C19.3045 10.5928 19.7173 10.7216 20.206 10.7216C20.7135 10.7216 21.1378 10.5871 21.4787 10.3182C21.8196 10.0455 22.0772 9.67614 22.2514 9.21023C22.4295 8.74432 22.5185 8.2197 22.5185 7.63636C22.5185 7.06061 22.4313 6.54356 22.2571 6.08523C22.0866 5.62689 21.8291 5.26515 21.4844 5C21.1435 4.73485 20.7173 4.60227 20.206 4.60227C19.7135 4.60227 19.2969 4.72917 18.956 4.98295C18.6188 5.23674 18.3632 5.59091 18.1889 6.04545C18.0147 6.5 17.9276 7.0303 17.9276 7.63636ZM26.142 12V3.27273H27.7841V4.65909H27.875C28.0341 4.18939 28.3144 3.82008 28.7159 3.55114C29.1212 3.27841 29.5795 3.14205 30.0909 3.14205C30.197 3.14205 30.322 3.14583 30.4659 3.15341C30.6136 3.16098 30.7292 3.17045 30.8125 3.18182V4.80682C30.7443 4.78788 30.6231 4.76705 30.4489 4.74432C30.2746 4.7178 30.1004 4.70455 29.9261 4.70455C29.5246 4.70455 29.1667 4.78977 28.8523 4.96023C28.5417 5.12689 28.2955 5.35985 28.1136 5.65909C27.9318 5.95455 27.8409 6.29167 27.8409 6.67045V12H26.142ZM37.8111 8.38068V3.27273H39.5156V12H37.8452V10.4886H37.7543C37.5535 10.9545 37.2315 11.3428 36.7884 11.6534C36.349 11.9602 35.8016 12.1136 35.1463 12.1136C34.5857 12.1136 34.0895 11.9905 33.6577 11.7443C33.2296 11.4943 32.8925 11.125 32.6463 10.6364C32.4039 10.1477 32.2827 9.54356 32.2827 8.82386V3.27273H33.9815V8.61932C33.9815 9.21402 34.1463 9.6875 34.4759 10.0398C34.8054 10.392 35.2334 10.5682 35.7599 10.5682C36.0781 10.5682 36.3944 10.4886 36.7088 10.3295C37.027 10.1705 37.2902 9.92992 37.4986 9.60795C37.7107 9.28598 37.8149 8.87689 37.8111 8.38068ZM43.4972 6.81818V12H41.7983V3.27273H43.429V4.69318H43.5369C43.7377 4.23106 44.0521 3.85985 44.4801 3.57955C44.9119 3.29924 45.4555 3.15909 46.1108 3.15909C46.7055 3.15909 47.2263 3.28409 47.6733 3.53409C48.1203 3.7803 48.4669 4.14773 48.7131 4.63636C48.9593 5.125 49.0824 5.72917 49.0824 6.44886V12H47.3835V6.65341C47.3835 6.02083 47.2188 5.52652 46.8892 5.17045C46.5597 4.81061 46.107 4.63068 45.5312 4.63068C45.1373 4.63068 44.7869 4.71591 44.4801 4.88636C44.1771 5.05682 43.9366 5.30682 43.7585 5.63636C43.5843 5.96212 43.4972 6.35606 43.4972 6.81818ZM55.0369 12.1761C54.2188 12.1761 53.5047 11.9886 52.8949 11.6136C52.285 11.2386 51.8116 10.714 51.4744 10.0398C51.1373 9.36553 50.9688 8.57765 50.9688 7.67614C50.9688 6.77083 51.1373 5.97917 51.4744 5.30114C51.8116 4.62311 52.285 4.09659 52.8949 3.72159C53.5047 3.34659 54.2188 3.15909 55.0369 3.15909C55.8551 3.15909 56.5691 3.34659 57.179 3.72159C57.7888 4.09659 58.2623 4.62311 58.5994 5.30114C58.9366 5.97917 59.1051 6.77083 59.1051 7.67614C59.1051 8.57765 58.9366 9.36553 58.5994 10.0398C58.2623 10.714 57.7888 11.2386 57.179 11.6136C56.5691 11.9886 55.8551 12.1761 55.0369 12.1761ZM55.0426 10.75C55.5729 10.75 56.0123 10.6098 56.3608 10.3295C56.7093 10.0492 56.9669 9.67614 57.1335 9.21023C57.304 8.74432 57.3892 8.23106 57.3892 7.67045C57.3892 7.11364 57.304 6.60227 57.1335 6.13636C56.9669 5.66667 56.7093 5.28977 56.3608 5.00568C56.0123 4.72159 55.5729 4.57955 55.0426 4.57955C54.5085 4.57955 54.0653 4.72159 53.7131 5.00568C53.3646 5.28977 53.1051 5.66667 52.9347 6.13636C52.768 6.60227 52.6847 7.11364 52.6847 7.67045C52.6847 8.23106 52.768 8.74432 52.9347 9.21023C53.1051 9.67614 53.3646 10.0492 53.7131 10.3295C54.0653 10.6098 54.5085 10.75 55.0426 10.75ZM64.6605 15.4545C63.9673 15.4545 63.3707 15.3636 62.8707 15.1818C62.3745 15 61.9692 14.7595 61.6548 14.4602C61.3404 14.161 61.1056 13.8333 60.9503 13.4773L62.4105 12.875C62.5128 13.0417 62.6491 13.2178 62.8196 13.4034C62.9938 13.5928 63.2287 13.7538 63.5241 13.8864C63.8234 14.0189 64.2079 14.0852 64.6776 14.0852C65.3215 14.0852 65.8537 13.928 66.2741 13.6136C66.6946 13.303 66.9048 12.8068 66.9048 12.125V10.4091H66.7969C66.6946 10.5947 66.5469 10.8011 66.3537 11.0284C66.1643 11.2557 65.9029 11.4527 65.5696 11.6193C65.2363 11.786 64.8026 11.8693 64.2685 11.8693C63.5791 11.8693 62.9579 11.7083 62.4048 11.3864C61.8556 11.0606 61.42 10.5814 61.098 9.94886C60.7798 9.3125 60.6207 8.5303 60.6207 7.60227C60.6207 6.67424 60.7779 5.87879 61.0923 5.21591C61.4105 4.55303 61.8461 4.04545 62.3991 3.69318C62.9522 3.33712 63.5791 3.15909 64.2798 3.15909C64.8215 3.15909 65.259 3.25 65.5923 3.43182C65.9257 3.60985 66.1851 3.81818 66.3707 4.05682C66.5601 4.29545 66.706 4.50568 66.8082 4.6875H66.9332V3.27273H68.598V12.1932C68.598 12.9432 68.4238 13.5587 68.0753 14.0398C67.7268 14.5208 67.2552 14.8769 66.6605 15.108C66.0696 15.339 65.4029 15.4545 64.6605 15.4545ZM64.6435 10.4602C65.1321 10.4602 65.545 10.3466 65.8821 10.1193C66.223 9.88826 66.4806 9.55871 66.6548 9.13068C66.8329 8.69886 66.9219 8.18182 66.9219 7.57955C66.9219 6.99242 66.8348 6.47538 66.6605 6.02841C66.4863 5.58144 66.2306 5.23295 65.8935 4.98295C65.5563 4.72917 65.1397 4.60227 64.6435 4.60227C64.1321 4.60227 63.706 4.73485 63.3651 5C63.0241 5.26136 62.7666 5.61742 62.5923 6.06818C62.4219 6.51894 62.3366 7.02273 62.3366 7.57955C62.3366 8.15152 62.4238 8.65341 62.598 9.08523C62.7723 9.51705 63.0298 9.85417 63.3707 10.0966C63.7154 10.339 64.1397 10.4602 64.6435 10.4602ZM70.8764 12V3.27273H72.5071V4.69318H72.6151C72.7969 4.21212 73.0942 3.83712 73.5071 3.56818C73.92 3.29545 74.4143 3.15909 74.9901 3.15909C75.5734 3.15909 76.062 3.29545 76.456 3.56818C76.8537 3.84091 77.1473 4.21591 77.3366 4.69318H77.4276C77.6359 4.22727 77.9673 3.85606 78.4219 3.57955C78.8764 3.29924 79.4181 3.15909 80.0469 3.15909C80.8385 3.15909 81.4844 3.4072 81.9844 3.90341C82.4882 4.39962 82.7401 5.14773 82.7401 6.14773V12H81.0412V6.30682C81.0412 5.71591 80.8802 5.28788 80.5582 5.02273C80.2363 4.75758 79.8518 4.625 79.4048 4.625C78.8518 4.625 78.4219 4.79545 78.1151 5.13636C77.8082 5.47348 77.6548 5.9072 77.6548 6.4375V12H75.9616V6.19886C75.9616 5.72538 75.8139 5.3447 75.5185 5.05682C75.223 4.76894 74.8385 4.625 74.3651 4.625C74.0431 4.625 73.7457 4.71023 73.473 4.88068C73.2041 5.04735 72.9863 5.2803 72.8196 5.57955C72.6567 5.87879 72.5753 6.22538 72.5753 6.61932V12H70.8764ZM87.5568 12.1932C87.0038 12.1932 86.5038 12.0909 86.0568 11.8864C85.6098 11.678 85.2557 11.3769 84.9943 10.983C84.7367 10.589 84.608 10.1061 84.608 9.53409C84.608 9.04167 84.7027 8.63636 84.892 8.31818C85.0814 8 85.3371 7.74811 85.6591 7.5625C85.9811 7.37689 86.3409 7.23674 86.7386 7.14205C87.1364 7.04735 87.5417 6.97538 87.9545 6.92614C88.4773 6.86553 88.9015 6.81629 89.2273 6.77841C89.553 6.73674 89.7898 6.67045 89.9375 6.57955C90.0852 6.48864 90.1591 6.34091 90.1591 6.13636V6.09659C90.1591 5.60038 90.0189 5.21591 89.7386 4.94318C89.4621 4.67045 89.0492 4.53409 88.5 4.53409C87.928 4.53409 87.4773 4.66098 87.1477 4.91477C86.822 5.16477 86.5966 5.44318 86.4716 5.75L84.875 5.38636C85.0644 4.85606 85.3409 4.42803 85.7045 4.10227C86.072 3.77273 86.4943 3.53409 86.9716 3.38636C87.4489 3.23485 87.9508 3.15909 88.4773 3.15909C88.8258 3.15909 89.1951 3.20076 89.5852 3.28409C89.9792 3.36364 90.3466 3.51136 90.6875 3.72727C91.0322 3.94318 91.3144 4.25189 91.5341 4.65341C91.7538 5.05114 91.8636 5.56818 91.8636 6.20455V12H90.2045V10.8068H90.1364C90.0265 11.0265 89.8617 11.2424 89.642 11.4545C89.4223 11.6667 89.1402 11.8428 88.7955 11.983C88.4508 12.1231 88.0379 12.1932 87.5568 12.1932ZM87.9261 10.8295C88.3958 10.8295 88.7973 10.7367 89.1307 10.5511C89.4678 10.3655 89.7235 10.1231 89.8977 9.82386C90.0758 9.52083 90.1648 9.19697 90.1648 8.85227V7.72727C90.1042 7.78788 89.9867 7.8447 89.8125 7.89773C89.642 7.94697 89.447 7.99053 89.2273 8.02841C89.0076 8.0625 88.7936 8.0947 88.5852 8.125C88.3769 8.15152 88.2027 8.17424 88.0625 8.19318C87.733 8.23485 87.4318 8.30492 87.1591 8.40341C86.8902 8.50189 86.6742 8.64394 86.5114 8.82955C86.3523 9.01136 86.2727 9.25379 86.2727 9.55682C86.2727 9.97727 86.428 10.2955 86.7386 10.5114C87.0492 10.7235 87.4451 10.8295 87.9261 10.8295ZM95.8253 0.363636V12H94.1264V0.363636H95.8253ZM105.577 3.27273L102.412 12H100.594L97.4233 3.27273H99.2472L101.457 9.98864H101.548L103.753 3.27273H105.577ZM110.638 12.1761C109.778 12.1761 109.037 11.9924 108.416 11.625C107.799 11.2538 107.321 10.733 106.984 10.0625C106.651 9.38826 106.484 8.59848 106.484 7.69318C106.484 6.79924 106.651 6.01136 106.984 5.32955C107.321 4.64773 107.791 4.11553 108.393 3.73295C109 3.35038 109.708 3.15909 110.518 3.15909C111.011 3.15909 111.488 3.24053 111.95 3.40341C112.412 3.56629 112.827 3.82197 113.195 4.17045C113.562 4.51894 113.852 4.97159 114.064 5.52841C114.276 6.08144 114.382 6.75379 114.382 7.54545V8.14773H107.445V6.875H112.717C112.717 6.42803 112.626 6.0322 112.445 5.6875C112.263 5.33902 112.007 5.06439 111.678 4.86364C111.352 4.66288 110.969 4.5625 110.53 4.5625C110.053 4.5625 109.636 4.67992 109.28 4.91477C108.928 5.14583 108.655 5.44886 108.462 5.82386C108.272 6.19508 108.178 6.59848 108.178 7.03409V8.02841C108.178 8.61174 108.28 9.10795 108.484 9.51705C108.693 9.92614 108.982 10.2386 109.354 10.4545C109.725 10.6667 110.159 10.7727 110.655 10.7727C110.977 10.7727 111.27 10.7273 111.536 10.6364C111.801 10.5417 112.03 10.4015 112.223 10.2159C112.416 10.0303 112.564 9.80114 112.666 9.52841L114.274 9.81818C114.145 10.2917 113.914 10.7064 113.581 11.0625C113.251 11.4148 112.837 11.6894 112.337 11.8864C111.84 12.0795 111.274 12.1761 110.638 12.1761ZM122.807 5.40341L121.267 5.67614C121.203 5.47917 121.1 5.29167 120.96 5.11364C120.824 4.93561 120.638 4.78977 120.403 4.67614C120.169 4.5625 119.875 4.50568 119.523 4.50568C119.042 4.50568 118.64 4.61364 118.318 4.82955C117.996 5.04167 117.835 5.31629 117.835 5.65341C117.835 5.94508 117.943 6.17992 118.159 6.35795C118.375 6.53598 118.723 6.68182 119.205 6.79545L120.591 7.11364C121.394 7.29924 121.992 7.58523 122.386 7.97159C122.78 8.35795 122.977 8.85985 122.977 9.47727C122.977 10 122.826 10.4659 122.523 10.875C122.223 11.2803 121.805 11.5985 121.267 11.8295C120.733 12.0606 120.114 12.1761 119.409 12.1761C118.432 12.1761 117.634 11.9678 117.017 11.5511C116.4 11.1307 116.021 10.5341 115.881 9.76136L117.523 9.51136C117.625 9.93939 117.835 10.2633 118.153 10.483C118.472 10.6989 118.886 10.8068 119.398 10.8068C119.955 10.8068 120.4 10.6913 120.733 10.4602C121.066 10.2254 121.233 9.93939 121.233 9.60227C121.233 9.32955 121.131 9.10038 120.926 8.91477C120.725 8.72917 120.417 8.58902 120 8.49432L118.523 8.17045C117.708 7.98485 117.106 7.68939 116.716 7.28409C116.33 6.87879 116.136 6.36553 116.136 5.74432C116.136 5.22917 116.28 4.77841 116.568 4.39205C116.856 4.00568 117.254 3.70455 117.761 3.48864C118.269 3.26894 118.85 3.15909 119.506 3.15909C120.449 3.15909 121.191 3.36364 121.733 3.77273C122.275 4.17803 122.633 4.72159 122.807 5.40341Z" fill="white"/>
</svg>
